<?xml version="1.0" encoding="UTF-8"?>
<svg version="1.1" xmlns="http://www.w3.org/2000/svg" width="512" height="512">
<path d="M0 0 C0.99660645 0.19335938 1.99321289 0.38671875 3.02001953 0.5859375 C49.55883408 9.78159288 92.9176679 30.8590153 127.421875 63.59765625 C129.29155782 65.33986069 131.15499097 66.97252133 133.12890625 68.5859375 C135.40956533 70.50355289 137.29186446 72.29078663 139.1875 74.5625 C141.20598171 76.94236927 143.24435346 79.25629256 145.3984375 81.515625 C157.80485366 94.54054284 168.32897569 109.25066104 177 125 C177.69971924 126.26021973 177.69971924 126.26021973 178.41357422 127.54589844 C185.80898685 140.96834668 192.10113383 154.4742596 197 169 C197.41306396 170.22251465 197.41306396 170.22251465 197.83447266 171.46972656 C201.07255506 181.24057677 203.60485473 191.12218737 205.75 201.1875 C205.94875732 202.11216064 206.14751465 203.03682129 206.35229492 203.98950195 C209.64499027 220.19611177 210.37530278 236.1303702 210.3125 252.625 C210.31034485 253.64323853 210.3081897 254.66147705 210.30596924 255.71057129 C210.25626609 270.3347884 209.94207988 284.62804638 207 299 C206.80664062 299.99660645 206.61328125 300.99321289 206.4140625 302.02001953 C197.21840712 348.55883408 176.1409847 391.9176679 143.40234375 426.421875 C141.66013931 428.29155782 140.02747867 430.15499097 138.4140625 432.12890625 C136.49644711 434.40956533 134.70921337 436.29186446 132.4375 438.1875 C130.05763073 440.20598171 127.74370744 442.24435346 125.484375 444.3984375 C112.45945716 456.80485366 97.74933896 467.32897569 82 476 C80.73978027 476.69971924 80.73978027 476.69971924 79.45410156 477.41357422 C66.03165332 484.80898685 52.5257404 491.10113383 38 496 C36.77748535 496.41306396 36.77748535 496.41306396 35.53027344 496.83447266 C25.75942323 500.07255506 15.87781263 502.60485473 5.8125 504.75 C4.88783936 504.94875732 3.96317871 505.14751465 3.01049805 505.35229492 C-13.19611177 508.64499027 -29.1303702 509.37530278 -45.625 509.3125 C-47.15235779 509.30926727 -47.15235779 509.30926727 -48.71057129 509.30596924 C-63.33247424 509.25627396 -77.63133932 508.95061242 -92 506 C-93.01255859 505.80132324 -94.02511719 505.60264648 -95.06835938 505.39794922 C-130.03416241 498.40583612 -163.91908195 484.81229186 -193 464 C-193.65597168 463.53335937 -194.31194336 463.06671875 -194.98779297 462.5859375 C-203.54372021 456.45729629 -211.52782972 449.96760694 -219.1328125 442.69140625 C-221.11484747 440.83088569 -223.07043335 439.08922287 -225.16796875 437.375 C-227.43596079 435.47301495 -229.30387698 433.69481767 -231.1875 431.4375 C-233.20598171 429.05763073 -235.24435346 426.74370744 -237.3984375 424.484375 C-249.80485366 411.45945716 -260.32897569 396.74933896 -269 381 C-269.46647949 380.15985352 -269.93295898 379.31970703 -270.41357422 378.45410156 C-277.80898685 365.03165332 -284.10113383 351.5257404 -289 337 C-289.41306396 335.77748535 -289.41306396 335.77748535 -289.83447266 334.53027344 C-293.07255506 324.75942323 -295.60485473 314.87781263 -297.75 304.8125 C-297.94875732 303.88783936 -298.14751465 302.96317871 -298.35229492 302.01049805 C-301.64499027 285.80388823 -302.37530278 269.8696298 -302.3125 253.375 C-302.31034485 252.35676147 -302.3081897 251.33852295 -302.30596924 250.28942871 C-302.25626609 235.6652116 -301.94207988 221.37195362 -299 207 C-298.70996094 205.50509033 -298.70996094 205.50509033 -298.4140625 203.97998047 C-290.53077579 164.08300704 -274.02048015 125.49630904 -248 94 C-247.32324219 93.17314697 -247.32324219 93.17314697 -246.6328125 92.32958984 C-241.07345176 85.55123944 -235.32275527 79.08265064 -229 73 C-226.57657467 70.59590023 -224.17265365 68.18099291 -221.81640625 65.7109375 C-188.02261873 30.68722011 -139.32941011 8.71027056 -92 0 C-91.19933105 -0.16081055 -90.39866211 -0.32162109 -89.57373047 -0.48730469 C-61.49587547 -5.9794441 -28.01022065 -5.73396692 0 0 Z " fill="#1D2023" transform="translate(302,3)"/>
<path d="M0 0 C0.86625 0.13470703 1.7325 0.26941406 2.625 0.40820312 C49.96979965 7.91963769 94.90359645 29.35068513 130 62 C131.3709163 63.19221213 132.74576624 64.37991999 134.125 65.5625 C141.93114033 72.39873913 148.54751993 79.88472523 155 88 C155.87554924 89.07353111 156.75187417 90.14642997 157.62890625 91.21875 C196.52153544 139.15796098 216.88910726 203.71166003 210.58105469 265.41113281 C208.72920767 281.80138431 206.14589533 298.29940847 201 314 C200.7014209 314.92441895 200.4028418 315.84883789 200.09521484 316.80126953 C190.90570848 344.79594235 177.89912578 370.57320303 160 394 C157.00617156 392.66130947 154.97944329 391.20221044 152.71484375 388.83984375 C152.10753418 388.21553467 151.50022461 387.59122559 150.87451172 386.94799805 C149.91569092 385.95280151 149.91569092 385.95280151 148.9375 384.9375 C142.93806332 378.83018062 136.79120883 373.22845907 130 368 C128.91616177 367.14908021 127.83285222 366.2974867 126.75 365.4453125 C124.61570589 363.77764629 122.47677735 362.11631972 120.3359375 360.45703125 C119.8217627 360.05589111 119.30758789 359.65475098 118.77783203 359.24145508 C116.95946669 357.91466871 116.95946669 357.91466871 114.65576172 356.7800293 C111.04691594 354.80461193 108.53969193 353.38563444 107.00830078 349.45385742 C106.48413066 346.30698915 106.34222484 343.37769513 106.375 340.1875 C106.38865601 338.5324646 106.38865601 338.5324646 106.40258789 336.84399414 C107.03538781 327.11443022 110.68357768 321.33201753 117.73999023 314.80908203 C123.7204196 310.01812695 128.55155613 308.58876443 136.11083984 309.25366211 C138.0756944 309.48779091 140.03799043 309.74311833 142 310 C153.24392534 309.59728061 165.45730383 302.87385325 173.5625 295.375 C183.59611538 284.37856294 188.63549252 269.86409096 188.30078125 255.1015625 C187.88991609 250.86484902 187.16385681 245.16385681 184 242 C168.16163097 239.20971699 156.48101296 241.75293755 142 248 C142.02618408 247.14470703 142.05236816 246.28941406 142.0793457 245.40820312 C143.00918984 222.66732618 143.00918984 222.66732618 137 201 C136.55398438 199.93523437 136.10796875 198.87046875 135.6484375 197.7734375 C130.34446142 186.06913273 121.82738505 177.09709332 112 169 C111.42121094 168.52304688 110.84242188 168.04609375 110.24609375 167.5546875 C106.74764213 164.94226671 104.28607571 164.61521515 100 165 C96.34758172 166.88345707 93.22694436 169.46561913 90 172 C89.30519531 172.51691406 88.61039062 173.03382813 87.89453125 173.56640625 C82.40146565 177.94112316 78.79238751 183.29851268 74.98046875 189.109375 C73.41107705 191.40000589 71.97689704 193.10481611 70 195 C69.99945523 194.44653932 69.99891047 193.89307863 69.99834919 193.32284641 C69.98334983 179.82532698 69.94046184 166.32814079 69.86790943 152.83080387 C69.83365812 146.30341585 69.80853224 139.77626143 69.80444336 133.2487793 C69.8001566 126.94620041 69.77166108 120.64414833 69.72656822 114.34173393 C69.71360555 111.9404959 69.70928114 109.53919478 69.71384621 107.1379261 C69.71876058 103.76723882 69.69261956 100.39808624 69.65942383 97.02758789 C69.66804947 96.04071487 69.67667511 95.05384186 69.68556213 94.0370636 C69.57626248 87.39138517 68.45992431 82.11205678 64 77 C56.71485674 71.14275176 48.44295326 71.28148589 39.49755859 71.35302734 C38.06079506 71.3462386 36.62404023 71.33732845 35.18730164 71.32647705 C31.31329302 71.30382992 27.43995577 71.31245767 23.56593657 71.32837248 C19.4977673 71.3411029 15.42965243 71.32927211 11.36148071 71.32144165 C4.53417725 71.31236781 -2.29285498 71.32427534 -9.12011719 71.34814453 C-16.99906381 71.37537348 -24.87736378 71.36652003 -32.75629485 71.3390125 C-39.5396363 71.31628359 -46.32278373 71.31313909 -53.10615098 71.32620585 C-57.1495456 71.33397688 -61.19263672 71.33510669 -65.23601151 71.31852341 C-69.03666743 71.30402162 -72.8364934 71.31420279 -76.63706017 71.34299469 C-78.02694385 71.34957436 -79.41689807 71.34776139 -80.80675316 71.33668137 C-88.68353753 71.2797018 -95.00803918 71.44142245 -101 77 C-105.5110214 82.16407719 -107.11921421 86.3657921 -107.15821838 93.16923523 C-107.1680072 94.46072479 -107.17779602 95.75221436 -107.18788147 97.08283997 C-107.19378568 98.51705896 -107.19959613 99.95127833 -107.20532227 101.38549805 C-107.21490077 102.89331328 -107.22491084 104.40112583 -107.23532104 105.90893555 C-107.26237914 110.0057175 -107.28338381 114.10251099 -107.30332303 118.19933295 C-107.32517699 122.47949311 -107.35256857 126.75961769 -107.37937927 131.03974915 C-107.42931414 139.14634469 -107.47425003 147.25295998 -107.51740164 155.35959417 C-107.56676722 164.5880485 -107.62168787 173.81646713 -107.67708123 183.04488695 C-107.79091346 202.02989149 -107.89774981 221.01492972 -108 240 C-109.71896484 240.36351562 -109.71896484 240.36351562 -111.47265625 240.734375 C-113.00273887 241.07230736 -114.53267941 241.41088344 -116.0625 241.75 C-116.81466797 241.90726563 -117.56683594 242.06453125 -118.34179688 242.2265625 C-123.55610634 243.40034645 -127.43636395 245.23275062 -132 248 C-132.66 248 -133.32 248 -134 248 C-133.75636719 246.54207031 -133.75636719 246.54207031 -133.5078125 245.0546875 C-132.47055568 237.764568 -132.86412357 230.34269084 -133 223 C-133.00773437 221.72576172 -133.00773437 221.72576172 -133.015625 220.42578125 C-133.91204298 204.13018305 -144.21108972 185.92741299 -156 175 C-164.90872958 167.09420875 -164.90872958 167.09420875 -176 165 C-178.34246905 166.38138075 -180.23657294 167.67238934 -182.3125 169.375 C-183.16062256 170.05284546 -183.16062256 170.05284546 -184.02587891 170.74438477 C-196.59475641 181.03174164 -205.0254932 193.55480849 -210 209 C-210.55880859 210.68029297 -210.55880859 210.68029297 -211.12890625 212.39453125 C-212.74498933 219.07695091 -212.20716068 226.16826195 -212.125 233 C-212.11495155 234.45702511 -212.10582899 235.91405691 -212.09765625 237.37109375 C-212.07578711 240.91420329 -212.04135977 244.45705812 -212 248 C-213.02480469 247.57847656 -214.04960937 247.15695312 -215.10546875 246.72265625 C-216.46605181 246.1690397 -217.82673416 245.61566714 -219.1875 245.0625 C-219.86103516 244.78470703 -220.53457031 244.50691406 -221.22851562 244.22070312 C-229.26731112 240.96597129 -236.35803804 240.78548321 -245 241 C-245.90492188 241.01675781 -246.80984375 241.03351563 -247.7421875 241.05078125 C-252.23496988 241.27503062 -252.23496988 241.27503062 -255.7109375 243.86328125 C-257.63523496 248.5457384 -257.53141711 252.98212296 -257.5 258 C-257.49500488 259.0307666 -257.49000977 260.0615332 -257.48486328 261.12353516 C-257.29669787 269.37037104 -256.06602641 275.71548303 -252 283 C-251.54238281 283.82371094 -251.08476562 284.64742188 -250.61328125 285.49609375 C-242.56632375 298.56964388 -230.97025972 306.14440406 -216.18359375 309.671875 C-212.95499446 310.00463861 -210.13505235 309.63946877 -206.93310547 309.21850586 C-199.12740635 308.45898197 -193.8273922 309.87441744 -187.65893555 314.80981445 C-180.85167153 321.15137575 -177.02784785 327.17505016 -175.97827148 336.53149414 C-175.78225307 342.75913353 -175.76100881 348.93718293 -179.56591797 354.14208984 C-183.49872836 357.88478237 -188.05849915 360.38542136 -192.86328125 362.84716797 C-195.80193781 364.43267257 -198.26777371 366.41070939 -200.8125 368.5625 C-201.66328125 369.27664063 -202.5140625 369.99078125 -203.390625 370.7265625 C-211.9263775 378.16340076 -220.0742143 385.91639998 -228 394 C-232.21543128 392.59485624 -233.69052307 389.54925709 -236.0625 386 C-236.79049805 384.92020874 -236.79049805 384.92020874 -237.53320312 383.81860352 C-250.89872988 363.77683103 -261.37413788 342.79287231 -269 319.9375 C-269.23169891 319.24720703 -269.46339783 318.55691406 -269.70211792 317.84570312 C-273.88461387 305.28830194 -276.8272111 292.61889693 -278.625 279.5 C-278.81219604 278.13887085 -278.81219604 278.13887085 -279.00317383 276.75024414 C-279.97391802 269.50412512 -280.77905239 262.31208488 -281 255 C-281.03254883 254.06430176 -281.06509766 253.12860352 -281.09863281 252.16455078 C-282.67102731 200.25170835 -268.55604424 147.43275487 -238 105 C-237.35708008 104.10450439 -237.35708008 104.10450439 -236.70117188 103.19091797 C-223.20896086 84.50542545 -208.22210128 67.2147512 -190 53 C-189.01644531 52.21109375 -188.03289062 51.4221875 -187.01953125 50.609375 C-154.44362043 24.70650318 -116.0223503 7.83442165 -75 1 C-74.15663086 0.85046875 -73.31326172 0.7009375 -72.44433594 0.546875 C-49.04980731 -3.51716891 -23.44854292 -3.99598872 0 0 Z " fill="#8BEDF7" transform="translate(291,12)"/>
<path d="M0 0 C0.78550735 -0.00696899 1.57101471 -0.01393799 2.38032532 -0.02111816 C4.90985532 -0.03843656 7.43916313 -0.04484107 9.96875 -0.046875 C10.83535248 -0.04788208 11.70195496 -0.04888916 12.59481812 -0.04992676 C33.30386088 -0.03368606 53.40885138 1.91107427 73.46875 7.203125 C74.36352051 7.43483398 75.25829102 7.66654297 76.18017578 7.90527344 C115.10236395 18.1379042 151.49761873 36.770259 181.1953125 64.11328125 C183.31505212 66.06183915 185.47358469 67.95069833 187.65625 69.828125 C190.28797972 72.13356302 192.87875087 74.47100693 195.40625 76.890625 C195.97214844 77.43074219 196.53804688 77.97085938 197.12109375 78.52734375 C198.76691993 80.57389283 199.44934147 81.54900799 199.46875 84.203125 C197.974681 86.25708322 196.55115202 87.9130039 194.78125 89.703125 C194.28302734 90.22430908 193.78480469 90.74549316 193.27148438 91.2824707 C191.68295824 92.93520225 190.07651307 94.56912464 188.46875 96.203125 C187.46171148 97.24818929 186.45518998 98.29375206 185.44921875 99.33984375 C179.17345443 105.80394274 172.62145309 111.70614022 165.46875 117.203125 C164.65180664 117.83468506 164.65180664 117.83468506 163.81835938 118.47900391 C130.26962366 144.26182857 90.24626325 161.43886978 48.46875 168.203125 C46.53708984 168.51636719 46.53708984 168.51636719 44.56640625 168.8359375 C-18.44073448 177.86867059 -84.1150133 158.81458378 -134.78125 121.203125 C-141.00463258 116.51469058 -146.8280225 111.51373902 -152.53125 106.203125 C-153.86062633 105.05270317 -155.19382608 103.90668112 -156.53125 102.765625 C-169.89541768 91.11272269 -169.89541768 91.11272269 -174.53125 84.203125 C-174.69366652 80.96129116 -173.24437799 79.87769739 -171.08984375 77.43359375 C-170.05799169 76.41061244 -169.01710312 75.39668921 -167.96875 74.390625 C-167.41936768 73.854375 -166.86998535 73.318125 -166.30395508 72.765625 C-162.17055259 68.75659467 -157.97279644 64.87024796 -153.53125 61.203125 C-153.03351074 60.78627441 -152.53577148 60.36942383 -152.02294922 59.93994141 C-136.70248844 47.15289016 -120.24436564 36.38277613 -102.53125 27.203125 C-101.78294922 26.81527832 -101.03464844 26.42743164 -100.26367188 26.02783203 C-69.93551744 10.53240608 -34.23439363 0.20668105 0 0 Z " fill="#0ABEB1" transform="translate(243.53125,331.796875)"/>
<path d="M0 0 C0.90425217 -0.00571014 1.80850433 -0.01142029 2.74015808 -0.01730347 C3.73499207 -0.01842133 4.72982605 -0.01953918 5.75480652 -0.02069092 C7.32327583 -0.02813828 7.32327583 -0.02813828 8.9234314 -0.03573608 C12.39481761 -0.05038328 15.86615811 -0.05716412 19.33757019 -0.06268311 C21.7441203 -0.06843263 24.15067039 -0.07419038 26.55722046 -0.07995605 C31.60876174 -0.09047345 36.66028707 -0.09631122 41.71183777 -0.09979248 C48.1885346 -0.10527751 54.66502122 -0.12930281 61.14165211 -0.15776443 C66.11473203 -0.17637774 71.08776121 -0.18159573 76.06087303 -0.18312836 C78.44871354 -0.18615856 80.83655309 -0.19419941 83.22435951 -0.20731354 C86.56409871 -0.22434569 89.9033229 -0.22250042 93.24308777 -0.21600342 C94.23184906 -0.2252182 95.22061035 -0.23443298 96.23933411 -0.243927 C101.17459586 -0.21381319 104.7513468 -0.18825946 108.69303894 3.14044189 C111.05600835 6.68489601 110.94038315 8.14742738 110.93354797 12.34764099 C110.9362973 13.64754471 110.93904663 14.94744843 110.94187927 16.28674316 C110.93480093 17.73040863 110.92753131 19.17407317 110.92008972 20.61773682 C110.91952568 22.13540133 110.91984203 23.65306639 110.92097473 25.17073059 C110.92154952 29.294436 110.90977491 33.41802551 110.89582682 37.54170394 C110.88334037 41.84986394 110.88215061 46.15802648 110.879776 50.46620178 C110.87355509 58.62596642 110.85713601 66.78567758 110.83707702 74.94541866 C110.81473702 84.23430036 110.80372937 93.52318459 110.79368615 102.81208646 C110.77277031 121.92156861 110.73758247 141.03100096 110.69303894 160.14044189 C109.89470642 160.4164624 109.0963739 160.69248291 108.27384949 160.97686768 C105.45849498 161.9173863 105.45849498 161.9173863 104.40007019 164.75762939 C103.59163846 168.62559559 103.35032448 172.33089768 103.38053894 176.26544189 C103.38472839 177.01172852 103.38891785 177.75801514 103.39323425 178.5269165 C103.55151378 186.36764654 104.59311467 193.75940712 108.78678894 200.51153564 C111.9766537 206.73177192 111.11232626 213.84020208 110.94303894 220.64044189 C110.9229406 222.04927064 110.90469572 223.4581271 110.88835144 224.86700439 C110.84143097 228.29219854 110.77578671 231.71595714 110.69303894 235.14044189 C108.0674405 234.8324275 105.44264088 234.51924008 102.81803894 234.20294189 C101.69848816 234.07242432 101.69848816 234.07242432 100.55632019 233.93927002 C94.91960144 233.25372314 94.91960144 233.25372314 92.69303894 232.14044189 C92.68495209 231.59364777 92.67686523 231.04685364 92.66853333 230.48348999 C92.58265125 224.80591076 92.48315569 219.12868729 92.37565613 213.45147705 C92.33731052 211.33109499 92.30246761 209.21064664 92.27116394 207.09014893 C92.22563428 204.04677592 92.16762055 201.00386157 92.10710144 197.96075439 C92.09555023 197.00863068 92.08399902 196.05650696 92.07209778 195.07553101 C92.05222809 194.19476898 92.0323584 193.31400696 92.0118866 192.40655518 C91.99856293 191.62934113 91.98523926 190.85212708 91.97151184 190.05136108 C91.85264318 187.90154719 91.85264318 187.90154719 89.69303894 186.14044189 C87.20446982 185.94220818 84.82719757 185.86763501 82.33757019 185.88165283 C81.20078323 185.87639587 81.20078323 185.87639587 80.04103088 185.87103271 C77.5291078 185.8622106 75.01746502 185.86806615 72.50553894 185.87481689 C70.76440883 185.87347038 69.02327909 185.87152996 67.28215027 185.86901855 C63.63033982 185.86606664 59.97862711 185.87036706 56.326828 185.87969971 C51.63896913 185.8910943 46.95133924 185.88453519 42.26348877 185.87255478 C38.66734584 185.86533797 35.07125746 185.86762328 31.47511292 185.87281036 C29.74629184 185.87414736 28.01746586 185.87249741 26.28865051 185.86785126 C23.87513553 185.86278893 21.46199471 185.8704919 19.04850769 185.88165283 C18.32948273 185.87760437 17.61045776 185.87355591 16.86964417 185.86938477 C12.83307529 185.7907959 12.83307529 185.7907959 9.69303894 188.14044189 C9.36346959 190.11804451 9.36346959 190.11804451 9.37419128 192.40655518 C9.35432159 193.2873172 9.3344519 194.16807922 9.3139801 195.07553101 C9.29665329 196.50371658 9.29665329 196.50371658 9.27897644 197.96075439 C9.25961029 198.93455048 9.24024414 199.90834656 9.22029114 200.91165161 C9.16039336 204.02949192 9.11406923 207.14736895 9.06803894 210.26544189 C9.02986855 212.3761353 8.99081738 214.48681297 8.95085144 216.59747314 C8.85468367 221.77832334 8.7696663 226.95926786 8.69303894 232.14044189 C2.02637227 233.47377523 -4.64029439 234.80710856 -11.30696106 236.14044189 C-12.67066853 207.31376405 -12.67066853 207.31376405 -4.30696106 194.14044189 C-1.99367319 188.48132564 -2.12803228 182.47990956 -2.05696106 176.45294189 C-2.04737366 175.72744141 -2.03778625 175.00194092 -2.02790833 174.25445557 C-2.05564244 169.86389321 -2.18503734 166.02869223 -4.30696106 162.14044189 C-7.84207984 160.94702268 -7.84207984 160.94702268 -11.30696106 160.14044189 C-11.42373914 140.1477559 -11.51192213 120.15513908 -11.56602192 100.16218281 C-11.59180858 90.87918513 -11.62696787 81.5963993 -11.68415833 72.3135376 C-11.73397923 64.22301013 -11.76624872 56.13263607 -11.77740353 48.04195946 C-11.78392457 43.75753456 -11.79926005 39.47354858 -11.83561134 35.1892643 C-11.86955035 31.15661359 -11.88001845 27.12458256 -11.87249947 23.0918026 C-11.87387497 21.61192838 -11.88382061 20.13203343 -11.90298843 18.65228271 C-11.92788584 16.63105773 -11.9188991 14.60950021 -11.90823364 12.58815002 C-11.91284261 11.45711003 -11.91745157 10.32607004 -11.9222002 9.16075611 C-11.11300912 5.18829862 -9.37208976 3.69866598 -6.30696106 1.14044189 C-3.97188313 -0.02709707 -2.60159767 0.00981977 0 0 Z " fill="#FCC2B1" transform="translate(205.3069610595703,92.85955810546875)"/>
<path d="M0 0 C1.13459656 -0.00788544 1.13459656 -0.00788544 2.29211426 -0.01593018 C4.79391086 -0.02914054 7.29507186 -0.02038873 9.796875 -0.01025391 C11.53418093 -0.01227435 13.27148604 -0.01518554 15.00878906 -0.01895142 C18.65047274 -0.02337616 22.29193572 -0.01693894 25.93359375 -0.00292969 C30.60460984 0.01416237 35.27510884 0.00432198 39.94610596 -0.01364708 C43.53373113 -0.0244809 47.12123345 -0.02104044 50.7088623 -0.0132637 C52.43127503 -0.01126058 54.15369887 -0.01372491 55.87609863 -0.02070236 C58.28228355 -0.02831036 60.6876278 -0.01672253 63.09375 0 C64.16453796 -0.00910904 64.16453796 -0.00910904 65.25695801 -0.0184021 C68.08418916 0.01805142 70.08571671 0.08787847 72.48942566 1.65316772 C73.78406147 3.77734861 73.92132829 5.05461572 73.91918945 7.53662109 C73.92853264 8.78306396 73.92853264 8.78306396 73.93806458 10.0546875 C73.92885483 10.94849121 73.91964508 11.84229492 73.91015625 12.76318359 C73.91090401 14.14449463 73.91090401 14.14449463 73.91166687 15.55371094 C73.90932657 17.50051023 73.89960064 19.44731256 73.88305664 21.39404297 C73.85946551 24.3767396 73.86249585 27.3585424 73.86914062 30.34130859 C73.86356381 32.23193893 73.85645391 34.1225655 73.84765625 36.01318359 C73.84856766 36.9069873 73.84947906 37.80079102 73.85041809 38.72167969 C73.84088608 39.5526416 73.83135406 40.38360352 73.8215332 41.23974609 C73.81462212 42.33536865 73.81462212 42.33536865 73.80757141 43.453125 C73.546875 45.38818359 73.546875 45.38818359 71.546875 48.38818359 C68.95564912 48.69059826 66.60193371 48.79772104 64.0078125 48.77636719 C63.23044739 48.78162415 62.45308228 48.7868811 61.65216064 48.79229736 C59.07519609 48.80553226 56.49884615 48.79674723 53.921875 48.78662109 C52.13590374 48.78864083 50.34993328 48.79155143 48.56396484 48.7953186 C44.81795411 48.79974668 41.07215773 48.79329544 37.32617188 48.77929688 C32.51715026 48.76220464 27.70863086 48.77204325 22.89962769 48.79001427 C19.21081741 48.80083911 15.52212681 48.79741177 11.83331299 48.78963089 C10.0598342 48.78762528 8.28634465 48.79010076 6.51287842 48.79706955 C4.03693741 48.80466283 1.56181715 48.79311041 -0.9140625 48.77636719 C-1.65178894 48.78243988 -2.38951538 48.78851257 -3.14959717 48.79476929 C-5.18896484 48.76913452 -5.18896484 48.76913452 -8.453125 48.38818359 C-10.49407754 45.32675478 -10.70601447 44.69076863 -10.7277832 41.23974609 C-10.73731522 40.40878418 -10.74684723 39.57782227 -10.75666809 38.72167969 C-10.75575668 37.82787598 -10.75484528 36.93407227 -10.75390625 36.01318359 C-10.75819138 35.09230957 -10.7624765 34.17143555 -10.76689148 33.22265625 C-10.77263389 31.27588727 -10.7731357 29.32909684 -10.76879883 27.38232422 C-10.76563703 24.39953152 -10.78910535 21.41772876 -10.81445312 18.43505859 C-10.81672589 16.54443485 -10.81742972 14.65380843 -10.81640625 12.76318359 C-10.825616 11.86937988 -10.83482574 10.97557617 -10.84431458 10.0546875 C-10.83808578 9.22372559 -10.83185699 8.39276367 -10.82543945 7.53662109 C-10.82606888 6.80620605 -10.8266983 6.07579102 -10.8273468 5.32324219 C-10.453125 3.38818359 -10.453125 3.38818359 -9.39567566 1.65316772 C-6.42846693 -0.27907118 -3.42617481 -0.02914598 0 0 Z " fill="#1E1F23" transform="translate(224.453125,222.61181640625)"/>
<path d="M0 0 C1.11755676 -0.00788544 1.11755676 -0.00788544 2.25769043 -0.01593018 C4.72221807 -0.02914123 7.18610047 -0.02038763 9.65063477 -0.01025391 C11.36312484 -0.01227455 13.07561407 -0.0151859 14.7881012 -0.01895142 C18.37851142 -0.02337643 21.96869782 -0.01693888 25.55908203 -0.00292969 C30.16050028 0.0141495 34.76139311 0.00433034 39.36279202 -0.01364708 C42.89984592 -0.02449119 46.43677542 -0.02103549 49.97383308 -0.0132637 C51.67029953 -0.01126276 53.36677727 -0.01371728 55.06323051 -0.02070236 C57.43568675 -0.02832584 59.80729442 -0.01670023 62.1796875 0 C63.23105644 -0.00910904 63.23105644 -0.00910904 64.30366516 -0.0184021 C67.29422143 0.0205755 69.41934272 0.26608884 72.09135437 1.65316772 C74.00221035 3.77406958 74.15140449 4.71145586 74.14038086 7.53662109 C74.14961075 8.78306396 74.14961075 8.78306396 74.1590271 10.0546875 C74.14465607 10.94849121 74.13028503 11.84229492 74.11547852 12.76318359 C74.11456207 13.68405762 74.11364563 14.60493164 74.11270142 15.55371094 C74.10665984 17.50054071 74.09089718 19.44736096 74.06616211 21.39404297 C74.02968009 24.3768126 74.02514253 27.35833929 74.02563477 30.34130859 C74.01580272 32.23194435 74.00414534 34.12257167 73.99047852 36.01318359 C73.98825287 36.9069873 73.98602722 37.80079102 73.98373413 38.72167969 C73.97097443 39.5526416 73.95821472 40.38360352 73.94506836 41.23974609 C73.93363297 42.33536865 73.93363297 42.33536865 73.92196655 43.453125 C73.65454102 45.38818359 73.65454102 45.38818359 71.65454102 48.38818359 C69.06331513 48.69059826 66.70959973 48.79772104 64.11547852 48.77636719 C63.3381134 48.78162415 62.56074829 48.7868811 61.75982666 48.79229736 C59.18286211 48.80553226 56.60651216 48.79674723 54.02954102 48.78662109 C52.24356975 48.78864083 50.45759929 48.79155143 48.67163086 48.7953186 C44.92562012 48.79974668 41.17982375 48.79329544 37.43383789 48.77929688 C32.62481627 48.76220464 27.81629688 48.77204325 23.0072937 48.79001427 C19.31848343 48.80083911 15.62979282 48.79741177 11.940979 48.78963089 C10.16750021 48.78762528 8.39401067 48.79010076 6.62054443 48.79706955 C4.14460342 48.80466283 1.66948317 48.79311041 -0.80639648 48.77636719 C-1.54412292 48.78243988 -2.28184937 48.78851257 -3.04193115 48.79476929 C-5.08129883 48.76913452 -5.08129883 48.76913452 -8.34545898 48.38818359 C-10.38641153 45.32675478 -10.59834845 44.69076863 -10.62011719 41.23974609 C-10.6296492 40.40878418 -10.63918121 39.57782227 -10.64900208 38.72167969 C-10.64809067 37.82787598 -10.64717926 36.93407227 -10.64624023 36.01318359 C-10.65052536 35.09230957 -10.65481049 34.17143555 -10.65922546 33.22265625 C-10.66496787 31.27588727 -10.66546968 29.32909684 -10.66113281 27.38232422 C-10.65797101 24.39953152 -10.68143933 21.41772876 -10.70678711 18.43505859 C-10.70905988 16.54443485 -10.7097637 14.65380843 -10.70874023 12.76318359 C-10.71794998 11.86937988 -10.72715973 10.97557617 -10.73664856 10.0546875 C-10.73041977 9.22372559 -10.72419098 8.39276367 -10.71777344 7.53662109 C-10.71840286 6.80620605 -10.71903229 6.07579102 -10.71968079 5.32324219 C-10.34545898 3.38818359 -10.34545898 3.38818359 -9.28128052 1.65316772 C-6.34419317 -0.2661047 -3.39431141 -0.02932356 0 0 Z " fill="#202024" transform="translate(224.345458984375,167.61181640625)"/>
<path d="M0 0 C3.04263267 -0.10845027 6.08136204 -0.18752063 9.125 -0.25 C9.9809375 -0.28351563 10.836875 -0.31703125 11.71875 -0.3515625 C17.33741237 -0.43800346 20.58220796 0.17399942 25 4 C27.3846937 7.57704054 27.24724465 9.11224804 27.24050903 13.35905457 C27.24221788 14.00681911 27.24392673 14.65458366 27.24568737 15.32197744 C27.24898615 17.49625769 27.23797243 19.67023051 27.22705078 21.84448242 C27.22648675 23.40155531 27.22680307 24.95862872 27.22793579 26.51570129 C27.22851062 30.74684008 27.21673525 34.97786592 27.20278788 39.20897841 C27.19030222 43.62924744 27.18911173 48.04951892 27.18673706 52.46980286 C27.18051592 60.84206264 27.16409653 69.21427032 27.14403808 77.58650714 C27.1216988 87.11722241 27.11069061 96.64794013 27.10064721 106.17867506 C27.07973085 125.78581248 27.04454256 145.39290296 27 165 C26.18917969 164.73445312 25.37835938 164.46890625 24.54296875 164.1953125 C17.40720568 161.91917853 10.40535521 160.12786973 3 159 C2.99668985 158.21700972 2.99337971 157.43401943 2.98996925 156.62730217 C2.90873934 137.57303893 2.81664686 118.51885651 2.71247292 99.46470451 C2.66235691 90.25024957 2.61591385 81.03580348 2.578125 71.82128906 C2.54517789 63.78966876 2.5053316 55.75811735 2.45720994 47.72657311 C2.43197202 43.47417064 2.41018272 39.22181372 2.39665604 34.96935654 C2.38381114 30.96551245 2.36173055 26.96182476 2.33261681 22.95806694 C2.32356001 21.48995214 2.31785523 20.02181216 2.31578636 18.55367088 C2.31245056 16.54574443 2.29577331 14.53785347 2.2784729 12.52999878 C2.27294214 11.40725492 2.26741138 10.28451107 2.26171303 9.12774467 C1.98448595 5.81459087 1.17504624 3.0995188 0 0 Z " fill="#C47451" transform="translate(324,93)"/>
<path d="M0 0 C1.10658966 0.00607269 1.10658966 0.00607269 2.23553467 0.01226807 C3.01289978 0.00876343 3.79026489 0.00525879 4.59118652 0.00164795 C7.16803849 -0.00717493 9.74461727 -0.00131833 12.32147217 0.00543213 C14.10744276 0.00408564 15.89341299 0.00214524 17.67938232 -0.00036621 C21.42534876 -0.00331823 25.17121992 0.00098264 28.91717529 0.01031494 C33.7261005 0.02170953 38.53480248 0.01515047 43.34371948 0.00317001 C47.03250825 -0.00404651 50.72124383 -0.00176162 54.41003418 0.0034256 C56.18351264 0.00476267 57.95699587 0.00311237 59.73046875 -0.00153351 C62.20624642 -0.00659536 64.68165927 0.0011065 67.15740967 0.01226807 C67.89513611 0.0082196 68.63286255 0.00417114 69.39294434 0 C74.46794339 0.04252835 74.46794339 0.04252835 76.69647217 2.27105713 C76.92106255 5.16506468 77.02464465 7.9605009 77.03240967 10.85699463 C77.04239487 12.13698837 77.04239487 12.13698837 77.05258179 13.44284058 C77.06271695 15.2501408 77.06739854 17.05747851 77.06707764 18.86480713 C77.07144436 21.62845749 77.10773529 24.39050274 77.14569092 27.15386963 C77.15156022 28.9090725 77.15552886 30.66428296 77.15740967 32.41949463 C77.1717807 33.24565277 77.18615173 34.07181091 77.20095825 34.92300415 C77.19480499 35.69705597 77.18865173 36.47110779 77.18231201 37.26861572 C77.18516205 37.94653168 77.18801208 38.62444763 77.19094849 39.32290649 C76.42841671 42.32714899 75.18260513 43.44775558 72.69647217 45.27105713 C70.09905761 45.66613835 67.92410394 45.81908501 65.32928467 45.78863525 C64.59385437 45.79564453 63.85842407 45.80265381 63.10070801 45.80987549 C60.67391 45.82745594 58.24828168 45.81583352 55.82147217 45.80230713 C54.13283057 45.80500205 52.44419049 45.80888448 50.7555542 45.81390381 C47.21813163 45.81979889 43.68111334 45.81123586 40.14373779 45.7925415 C35.61058372 45.76975161 31.07837689 45.78287469 26.54525757 45.80683136 C23.0587857 45.82128927 19.57253822 45.81668346 16.08605957 45.80632019 C14.4147124 45.80365287 12.74334482 45.80692289 11.07202148 45.8162384 C8.73535242 45.82640432 6.40021472 45.81090461 4.06365967 45.78863525 C3.37366882 45.79673218 2.68367798 45.8048291 1.97277832 45.81317139 C-1.30434013 45.75534292 -3.0631557 45.44734331 -5.73361206 43.48886108 C-7.40885505 41.12226245 -7.80134864 40.11843415 -7.78936768 37.26861572 C-7.79552094 36.4945639 -7.80167419 35.72051208 -7.80801392 34.92300415 C-7.79364288 34.09684601 -7.77927185 33.27068787 -7.76446533 32.41949463 C-7.76354889 31.56425201 -7.76263245 30.7090094 -7.76168823 29.82785034 C-7.75565636 28.02403192 -7.73992269 26.22022332 -7.71514893 24.41656494 C-7.67856593 21.64893924 -7.67413013 18.88264972 -7.67462158 16.11480713 C-7.66479308 14.36219134 -7.65313724 12.60958465 -7.63946533 10.85699463 C-7.63723969 10.02678802 -7.63501404 9.19658142 -7.63272095 8.34121704 C-7.52271606 1.72225698 -6.78056605 0.05682095 0 0 Z " fill="#222225" transform="translate(221.30352783203125,113.72894287109375)"/>
<path d="M0 0 C10.98390027 5.49195013 18.38113086 17.73510458 22.35693359 29.08984375 C28.24592917 47.15479601 27.33260621 64.10213402 19.1875 81.375 C14.53891678 90.06633604 8.3375492 97.43199864 1 104 C0.67 104 0.34 104 0 104 C0 69.68 0 35.36 0 0 Z " fill="#0AB9AD" transform="translate(123,191)"/>
<path d="M0 0 C0 33.99 0 67.98 0 103 C-11.24367048 97.37816476 -18.23889982 85.55988456 -22.28442383 73.98266602 C-28.19903049 56.02658351 -27.28137037 38.68331428 -19.1875 21.5625 C-16.06873904 15.77947087 -7.46043034 0 0 0 Z " fill="#0AB9AD" transform="translate(389,191)"/>
<path d="M0 0 C12.8027731 9.60207983 22.24619769 23.89737996 25 40 C25.26278516 43.29766257 25.28677286 46.56827103 25.25 49.875 C25.23876099 51.20543335 25.23876099 51.20543335 25.22729492 52.56274414 C24.91130687 71.73915842 17.28119529 86.07799976 4.796875 100.28515625 C3 102 3 102 0 103 C0 69.01 0 35.02 0 0 Z " fill="#0ABDB0" transform="translate(399,191)"/>
<path d="M0 0 C0 33.99 0 67.98 0 103 C-12.7411441 94.50590393 -19.77507605 81.4935732 -24 67 C-27.21248755 49.45648032 -25.66948439 31.55666008 -15.7421875 16.3828125 C-3.76393443 0 -3.76393443 0 0 0 Z " fill="#0ABDB0" transform="translate(113,191)"/>
<path d="M0 0 C2 2 2 2 2.4375 4.9375 C2 8 2 8 0.0546875 9.55859375 C-3.9692318 11.45734851 -7.97205459 12.22946784 -12.3125 13.125 C-30.45906177 17.17552896 -47.6862242 24.14114607 -64 33 C-64.64308105 33.33966797 -65.28616211 33.67933594 -65.94873047 34.02929688 C-82.89006839 42.98132488 -98.83378077 54.07281298 -112.5546875 67.5 C-118.1108871 72.88782991 -118.1108871 72.88782991 -121.10546875 73.265625 C-123.0625 73 -123.0625 73 -126 72 C-126.78515625 69.32421875 -126.78515625 69.32421875 -127 66 C-125.18359375 63.39453125 -125.18359375 63.39453125 -122.4375 60.8125 C-121.9422583 60.34400635 -121.4470166 59.8755127 -120.93676758 59.39282227 C-114.96014966 53.84911832 -108.53176034 48.86593033 -102 44 C-101.4234668 43.56800293 -100.84693359 43.13600586 -100.25292969 42.69091797 C-74.08723642 23.19592516 -33.61724747 -2.21112225 0 0 Z " fill="#58FDDD" transform="translate(211,347)"/>
<path d="M0 0 C0 6.27 0 12.54 0 19 C-2.14242187 19.70962891 -2.14242187 19.70962891 -4.328125 20.43359375 C-21.39400869 26.17318799 -37.76707796 32.83652896 -53.50976562 41.61328125 C-57.80879387 44 -57.80879387 44 -60 44 C-61.39860559 37.1796394 -62.0966247 30.69205025 -58.53955078 24.42822266 C-53.79809547 17.95722636 -47.50158929 10.54956006 -39.52441406 8.30273438 C-35.4667406 7.87423359 -31.60757898 8.2398719 -27.56640625 8.68359375 C-16.95227144 9.81113542 -9.03156273 0 0 0 Z " fill="#8AEAF5" transform="translate(183,313)"/>
<path d="M0 0 C8.91 0 17.82 0 27 0 C27 11.55 27 23.1 27 35 C17.99382928 35 8.98863191 34.56178949 0 34 C0 22.78 0 11.56 0 0 Z " fill="#89E4EE" transform="translate(261,288)"/>
<path d="M0 0 C8.91 0 17.82 0 27 0 C27 11.22 27 22.44 27 34 C13.635 34.495 13.635 34.495 0 35 C0 23.45 0 11.9 0 0 Z " fill="#FDEBE8" transform="translate(224,288)"/>
<path d="M0 0 C8.91 0 17.82 0 27 0 C27 9.24 27 18.48 27 28 C18.09 28 9.18 28 0 28 C0 18.76 0 9.52 0 0 Z " fill="#8AE6F0" transform="translate(261,233)"/>
<path d="M0 0 C8.91 0 17.82 0 27 0 C27 9.24 27 18.48 27 28 C18.09 28 9.18 28 0 28 C0 18.76 0 9.52 0 0 Z " fill="#F5E4E1" transform="translate(224,233)"/>
<path d="M0 0 C8.91 0 17.82 0 27 0 C27 9.24 27 18.48 27 28 C18.09 28 9.18 28 0 28 C0 18.76 0 9.52 0 0 Z " fill="#89E4EF" transform="translate(261,178)"/>
<path d="M0 0 C8.91 0 17.82 0 27 0 C27 9.24 27 18.48 27 28 C18.09 28 9.18 28 0 28 C0 18.76 0 9.52 0 0 Z " fill="#F4E2E0" transform="translate(224,178)"/>
<path d="M0 0 C8.91 0 17.82 0 27 0 C27 7.92 27 15.84 27 24 C18.09 24 9.18 24 0 24 C0 16.08 0 8.16 0 0 Z " fill="#8AE9F4" transform="translate(261,124)"/>
<path d="M0 0 C8.91 0 17.82 0 27 0 C27 7.92 27 15.84 27 24 C18.09 24 9.18 24 0 24 C0 16.08 0 8.16 0 0 Z " fill="#FAE8E5" transform="translate(224,124)"/>
<path d="M0 0 C14.98928742 13.08284018 14.98928742 13.08284018 15.98120117 20.50585938 C16.11200448 24.63021138 15.64664531 28.54942542 14.87182617 32.59570312 C11.2876531 31.20296339 7.81793153 29.65919508 4.35229492 27.99414062 C3.33071289 27.50429688 2.30913086 27.01445312 1.2565918 26.50976562 C0.20149414 26.001875 -0.85360352 25.49398438 -1.94067383 24.97070312 C-3.55232422 24.19726562 -3.55232422 24.19726562 -5.1965332 23.40820312 C-7.84110464 22.13880884 -10.48473176 20.86744758 -13.12817383 19.59570312 C-13.12817383 12.66570312 -13.12817383 5.73570312 -13.12817383 -1.40429688 C-4.3462913 -2.86794396 -4.3462913 -2.86794396 0 0 Z " fill="#89E9F4" transform="translate(374.128173828125,324.404296875)"/>
<path d="M0 0 C5.46302707 4.5570957 10.53637929 9.39003591 15.55859375 14.42578125 C16.34774673 15.21397751 17.13689972 16.00217377 17.94996643 16.81425476 C19.60418475 18.46779646 21.25715649 20.12258609 22.90893555 21.77856445 C25.45052186 24.32554952 27.99745589 26.8671003 30.54492188 29.40820312 C32.15396696 31.01790824 33.76270223 32.62792311 35.37109375 34.23828125 C36.13659042 35.00175369 36.9020871 35.76522614 37.69078064 36.55183411 C38.73801048 37.60379219 38.73801048 37.60379219 39.80639648 38.67700195 C40.42481918 39.29622025 41.04324188 39.91543854 41.68040466 40.55342102 C43 42 43 42 43 43 C32.26648989 43.82565462 22.20264697 39.85594374 14 33 C7.12751682 26.62552284 0.28597133 17.26367166 -0.09765625 7.51953125 C-0.08605469 6.62621094 -0.07445312 5.73289062 -0.0625 4.8125 C-0.05347656 3.91144531 -0.04445312 3.01039063 -0.03515625 2.08203125 C-0.02355469 1.39496094 -0.01195312 0.70789063 0 0 Z " fill="#0AB9AC" transform="translate(43,270)"/>
<path d="M0 0 C-4.5570957 5.46302707 -9.39003591 10.53637929 -14.42578125 15.55859375 C-15.21397751 16.34774673 -16.00217377 17.13689972 -16.81425476 17.94996643 C-18.46779646 19.60418475 -20.12258609 21.25715649 -21.77856445 22.90893555 C-24.32554952 25.45052186 -26.8671003 27.99745589 -29.40820312 30.54492188 C-31.01790824 32.15396696 -32.62792311 33.76270223 -34.23828125 35.37109375 C-35.00175369 36.13659042 -35.76522614 36.9020871 -36.55183411 37.69078064 C-37.60379219 38.73801048 -37.60379219 38.73801048 -38.67700195 39.80639648 C-39.29622025 40.42481918 -39.91543854 41.04324188 -40.55342102 41.68040466 C-42 43 -42 43 -43 43 C-43.72509862 31.94224599 -39.99473536 22.54912099 -33 14 C-24.22225036 4.61688831 -12.82216184 -0.44990042 0 0 Z " fill="#0AB8AC" transform="translate(462,262)"/>
<path d="M0 0 C0.5156082 10.8277721 -2.52771105 19.26240991 -9 28 C-16.65198873 36.23297306 -26.78239182 42.22775832 -38.19140625 43.18359375 C-39.79543541 43.18683421 -41.39936794 43.10438905 -43 43 C-38.4429043 37.53697293 -33.60996409 32.46362071 -28.57421875 27.44140625 C-27.78602249 26.65225327 -26.99782623 25.86310028 -26.18574524 25.05003357 C-24.53220354 23.39581525 -22.87741391 21.74284351 -21.22143555 20.09106445 C-18.67445048 17.54947814 -16.1328997 15.00254411 -13.59179688 12.45507812 C-11.98209176 10.84603304 -10.37207689 9.23729777 -8.76171875 7.62890625 C-7.99824631 6.86340958 -7.23477386 6.0979129 -6.44816589 5.30921936 C-5.7468605 4.61106613 -5.04555511 3.9129129 -4.32299805 3.19360352 C-3.70377975 2.57518082 -3.08456146 1.95675812 -2.44657898 1.31959534 C-1 0 -1 0 0 0 Z " fill="#0AB7AB" transform="translate(469,270)"/>
<path d="M0 0 C11.73044321 -0.4991678 21.5601424 3.16587158 30.3671875 11.14453125 C39.06833652 20.51878802 43.43247099 30.17781947 43 43 C37.53697293 38.4429043 32.46362071 33.60996409 27.44140625 28.57421875 C26.65225327 27.78602249 25.86310028 26.99782623 25.05003357 26.18574524 C23.39581525 24.53220354 21.74284351 22.87741391 20.09106445 21.22143555 C17.54947814 18.67445048 15.00254411 16.1328997 12.45507812 13.59179688 C10.84603304 11.98209176 9.23729777 10.37207689 7.62890625 8.76171875 C6.86340958 7.99824631 6.0979129 7.23477386 5.30921936 6.44816589 C4.26198952 5.39620781 4.26198952 5.39620781 3.19360352 4.32299805 C2.57518082 3.70377975 1.95675812 3.08456146 1.31959534 2.44657898 C0 1 0 1 0 0 Z " fill="#0AB7AA" transform="translate(50,262)"/>
<path d="M0 0 C5.46302707 4.5570957 10.53637929 9.39003591 15.55859375 14.42578125 C16.34774673 15.21397751 17.13689972 16.00217377 17.94996643 16.81425476 C19.60418475 18.46779646 21.25715649 20.12258609 22.90893555 21.77856445 C25.45052186 24.32554952 27.99745589 26.8671003 30.54492188 29.40820312 C32.15396696 31.01790824 33.76270223 32.62792311 35.37109375 34.23828125 C36.13659042 35.00175369 36.9020871 35.76522614 37.69078064 36.55183411 C38.73801048 37.60379219 38.73801048 37.60379219 39.80639648 38.67700195 C40.42481918 39.29622025 41.04324188 39.91543854 41.68040466 40.55342102 C43 42 43 42 43 43 C32.3012631 43.80745184 22.50601352 39.29967554 14 33 C6.57103961 26.1403086 0.61848918 15.90876583 -0.18359375 5.65234375 C-0.18691845 3.76723848 -0.10267146 1.88231015 0 0 Z " fill="#0ABBAE" transform="translate(318,270)"/>
<path d="M0 0 C0.95354961 9.72620601 -3.07915197 19.3601961 -9 27 C-9.598125 27.80308594 -10.19625 28.60617187 -10.8125 29.43359375 C-17.37947066 37.13805754 -27.28753502 40.99267412 -37 43 C-38.99916906 43.05764617 -41.001395 43.07468629 -43 43 C-38.4429043 37.53697293 -33.60996409 32.46362071 -28.57421875 27.44140625 C-27.78602249 26.65225327 -26.99782623 25.86310028 -26.18574524 25.05003357 C-24.53220354 23.39581525 -22.87741391 21.74284351 -21.22143555 20.09106445 C-18.67445048 17.54947814 -16.1328997 15.00254411 -13.59179688 12.45507812 C-11.98209176 10.84603304 -10.37207689 9.23729777 -8.76171875 7.62890625 C-7.99824631 6.86340958 -7.23477386 6.0979129 -6.44816589 5.30921936 C-5.7468605 4.61106613 -5.04555511 3.9129129 -4.32299805 3.19360352 C-3.70377975 2.57518082 -3.08456146 1.95675812 -2.44657898 1.31959534 C-1 0 -1 0 0 0 Z " fill="#0ABAAE" transform="translate(194,270)"/>
<path d="M0 0 C-4.49341567 5.38177723 -9.2440943 10.39064083 -14.20703125 15.33984375 C-14.97303146 16.10680069 -15.73903168 16.87375763 -16.52824402 17.66395569 C-18.13470736 19.27109547 -19.74241795 20.87698941 -21.35131836 22.48168945 C-23.82587623 24.95084704 -26.29499643 27.42535325 -28.76367188 29.90039062 C-30.32780406 31.4638628 -31.892246 33.02702518 -33.45703125 34.58984375 C-34.19862991 35.33346664 -34.94022858 36.07708954 -35.70429993 36.84324646 C-36.38558456 37.52137894 -37.0668692 38.19951141 -37.76879883 38.89819336 C-38.67097893 39.79918007 -38.67097893 39.79918007 -39.59138489 40.71836853 C-41 42 -41 42 -42 42 C-42.93735011 32.58483889 -40.554771 24.88179383 -34.98046875 17.2265625 C-27.96039768 9.03852865 -20.42767063 3.77140768 -10 1 C-9.32066406 0.81179688 -8.64132813 0.62359375 -7.94140625 0.4296875 C-5.27981006 -0.15939818 -2.71538352 -0.06171326 0 0 Z " fill="#0ABCAF" transform="translate(186,262)"/>
<path d="M0 0 C11.66431177 -0.14954246 21.96488689 3.79861517 30.5 11.8125 C38.65240349 20.85711933 42.43393031 29.84995123 42 42 C36.61822277 37.50658433 31.60935917 32.7559057 26.66015625 27.79296875 C25.89319931 27.02696854 25.12624237 26.26096832 24.33604431 25.47175598 C22.72890453 23.86529264 21.12301059 22.25758205 19.51831055 20.64868164 C17.04915296 18.17412377 14.57464675 15.70500357 12.09960938 13.23632812 C10.5361372 11.67219594 8.97297482 10.107754 7.41015625 8.54296875 C6.29472191 7.43057076 6.29472191 7.43057076 5.15675354 6.29570007 C4.47862106 5.61441544 3.80048859 4.9331308 3.10180664 4.23120117 C2.50114883 3.62974777 1.90049103 3.02829437 1.28163147 2.40861511 C0 1 0 1 0 0 Z " fill="#0ABBAF" transform="translate(326,262)"/>
<path d="M0 0 C4.81239327 1.92495731 9.28044599 4.16733472 13.8671875 6.5625 C17.55042334 8.34820073 17.55042334 8.34820073 24 10 C24 15.61 24 21.22 24 27 C15.93613769 24.84963672 7.96748147 22.48448347 0 20 C0 13.4 0 6.8 0 0 Z " fill="#C17250" transform="translate(327,312)"/>
<path d="M0 0 C8.91 0 17.82 0 27 0 C27 0.33 27 0.66 27 1 C18.42 1 9.84 1 1 1 C1 11.89 1 22.78 1 34 C7.50381366 31.67327725 7.50381366 31.67327725 13.2109375 28.51953125 C13.89800781 28.07802734 14.58507812 27.63652344 15.29296875 27.18164062 C15.98003906 26.72982422 16.66710937 26.27800781 17.375 25.8125 C24.75104312 21 24.75104312 21 27 21 C27 25.29 27 29.58 27 34 C13.635 34.495 13.635 34.495 0 35 C0 23.45 0 11.9 0 0 Z " fill="#91CED6" transform="translate(224,288)"/>
<path d="M0 0 C0.67675781 -0.01611328 1.35351562 -0.03222656 2.05078125 -0.04882812 C4.9845289 -0.05172137 7.00228849 -0.03460142 9.44921875 1.671875 C10.93677365 3.99445143 10.84598519 5.61381554 10.5 8.3125 C7.87276176 10.93973824 5.95788327 10.57365971 2.37890625 10.5859375 C1.59386719 10.57820313 0.80882812 10.57046875 0 10.5625 C-1.17755859 10.57410156 -1.17755859 10.57410156 -2.37890625 10.5859375 C-8.24669213 10.56580787 -8.24669213 10.56580787 -10.5 8.3125 C-10.8125 5.3125 -10.8125 5.3125 -10.5 2.3125 C-6.88536441 -0.09725706 -4.1778074 -0.01989432 0 0 Z " fill="#57FDDD" transform="translate(250.5,341.6875)"/>
<path d="M0 0 C1.48009643 0.97776067 2.95905144 1.9572494 4.4375 2.9375 C5.26121094 3.48277344 6.08492188 4.02804687 6.93359375 4.58984375 C9 6 9 6 10 7 C10.08631874 8.34267413 10.10706473 9.68974322 10.09765625 11.03515625 C10.09443359 11.84404297 10.09121094 12.65292969 10.08789062 13.48632812 C10.07951172 14.33646484 10.07113281 15.18660156 10.0625 16.0625 C10.05798828 16.91650391 10.05347656 17.77050781 10.04882812 18.65039062 C10.03700373 20.76695663 10.01906769 22.88348685 10 25 C4.921875 20.703125 4.921875 20.703125 3 19 C2.2575 18.4328125 1.515 17.865625 0.75 17.28125 C-1.75810478 14.01175627 -1.21224784 11.13141439 -0.75 7.25 C-0.68425781 6.55261719 -0.61851563 5.85523438 -0.55078125 5.13671875 C-0.38640673 3.42252737 -0.19577346 1.71088977 0 0 Z " fill="#86E4EF" transform="translate(103,300)"/>
<path d="M0 0 C2.48237298 12.75191598 2.48237298 12.75191598 -1.125 18.22265625 C-7.99010791 25 -7.99010791 25 -10 25 C-11.37767654 8.92710706 -11.37767654 8.92710706 -8.03125 4.24609375 C-2.42888831 0 -2.42888831 0 0 0 Z " fill="#87E6F0" transform="translate(409,300)"/>
<path d="M0 0 C2.18261826 12.14081408 2.18261826 12.14081408 -0.6796875 16.640625 C-2.6996795 18.58154258 -4.78479755 20.29034168 -7 22 C-7.33 22.66 -7.66 23.32 -8 24 C-8.66 24 -9.32 24 -10 24 C-11.22204139 7.80795164 -11.22204139 7.80795164 -8.2890625 3.46875 C-5.5910097 1.48173639 -3.40772037 0 0 0 Z " fill="#85E2EC" transform="translate(133,301)"/>
<path d="M0 0 C1.35350594 0.62469505 2.6808418 1.30570621 4 2 C5.06476563 2.51046875 6.12953125 3.0209375 7.2265625 3.546875 C10 6 10 6 10.47949219 8.00976562 C10.59149371 10.44913828 10.52351806 12.81278061 10.375 15.25 C10.34792969 16.09046875 10.32085937 16.9309375 10.29296875 17.796875 C10.22244109 19.86568634 10.11482367 21.93317393 10 24 C4.921875 19.703125 4.921875 19.703125 3 18 C2.2575 17.4225 1.515 16.845 0.75 16.25 C-1.78377854 12.99228474 -1.19717776 10.77459983 -0.75 6.75 C-0.62109375 5.48671875 -0.4921875 4.2234375 -0.359375 2.921875 C-0.24078125 1.95765625 -0.1221875 0.9934375 0 0 Z " fill="#85E2ED" transform="translate(379,301)"/>
<path d="M0 0 C7.26 0 14.52 0 22 0 C17.83752583 3.32997934 13.85299177 6.04596319 9.3125 8.75 C8.29833008 9.36681641 8.29833008 9.36681641 7.26367188 9.99609375 C2.248845 13 2.248845 13 0 13 C0 8.71 0 4.42 0 0 Z " fill="#FAE9E7" transform="translate(261,289)"/>
<path d="M0 0 C0 3.63 0 7.26 0 11 C-6.93 11 -13.86 11 -21 11 C-18.25287553 8.93965665 -16.12461175 7.43754988 -13.14453125 5.95703125 C-12.44005859 5.60576172 -11.73558594 5.25449219 -11.00976562 4.89257812 C-9.92211914 4.35793945 -9.92211914 4.35793945 -8.8125 3.8125 C-8.07580078 3.44447266 -7.33910156 3.07644531 -6.58007812 2.69726562 C-1.14050904 0 -1.14050904 0 0 0 Z " fill="#8EEBF6" transform="translate(251,250)"/>
<path d="M0 0 C0 3.63 0 7.26 0 11 C-6.6 11 -13.2 11 -20 11 C-14.37193512 6.4975481 -14.37193512 6.4975481 -11.484375 5.078125 C-10.56785156 4.62373047 -10.56785156 4.62373047 -9.6328125 4.16015625 C-9.01148438 3.85980469 -8.39015625 3.55945313 -7.75 3.25 C-7.11320313 2.93417969 -6.47640625 2.61835938 -5.8203125 2.29296875 C-1.15496483 0 -1.15496483 0 0 0 Z " fill="#8EEBF6" transform="translate(251,195)"/>
<path d="M0 0 C6.6 0 13.2 0 20 0 C17.23498662 2.07376003 15.11252114 3.5656146 12.109375 5.04296875 C11.40039062 5.39423828 10.69140625 5.74550781 9.9609375 6.10742188 C9.23132813 6.46384766 8.50171875 6.82027344 7.75 7.1875 C7.00492187 7.55552734 6.25984375 7.92355469 5.4921875 8.30273438 C3.66325683 9.2054758 1.83186904 10.1032362 0 11 C0 7.37 0 3.74 0 0 Z " fill="#F9E9E7" transform="translate(261,179)"/>
<path d="M0 0 C6.6 0 13.2 0 20 0 C17.23498662 2.07376003 15.11252114 3.5656146 12.109375 5.04296875 C11.40039062 5.39423828 10.69140625 5.74550781 9.9609375 6.10742188 C9.23132813 6.46384766 8.50171875 6.82027344 7.75 7.1875 C7.00492187 7.55552734 6.25984375 7.92355469 5.4921875 8.30273438 C3.66325683 9.2054758 1.83186904 10.1032362 0 11 C0 7.37 0 3.74 0 0 Z " fill="#F9E9E6" transform="translate(261,234)"/>
<path d="M0 0 C0 2.97 0 5.94 0 9 C-6.27 9 -12.54 9 -19 9 C-15.65284504 6.48963378 -12.64747424 4.67438298 -8.9375 2.8125 C-7.37322266 2.01779297 -7.37322266 2.01779297 -5.77734375 1.20703125 C-3 0 -3 0 0 0 Z " fill="#8DEBF6" transform="translate(251,139)"/>
<path d="M0 0 C6.27 0 12.54 0 19 0 C15.45331164 2.66001627 12.37399168 4.35951848 8.375 6.1875 C7.22773438 6.71730469 6.08046875 7.24710938 4.8984375 7.79296875 C2 9 2 9 0 9 C0 6.03 0 3.06 0 0 Z " fill="#F8E9E7" transform="translate(261,124)"/>
</svg>
